<?xml version="1.0" encoding="utf-8"?>
<!-- Generator: Adobe Illustrator 27.5.0, SVG Export Plug-In . SVG Version: 6.00 Build 0)  -->
<svg version="1.1" id="Layer_1" xmlns="http://www.w3.org/2000/svg" xmlns:xlink="http://www.w3.org/1999/xlink" x="0px" y="0px"
	 viewBox="0 0 2900.593 2000" style="enable-background:new 0 0 2900.593 2000;" xml:space="preserve">
<rect x="0" y="0" style="fill:#FFFFFF;" width="2900.593" height="2000"/>
<g>
	<g>
		<g>
			<g>
				<g>
					<path style="fill:#DCF4FF;" d="M713.416,1877.325l-361.628-2.089c0,0-206.667-361.333-147.578-788.564
						c78.813-569.844,480.02-825.585,904.362-844.242c449.165-19.749,522.866,240.538,848.549,263.473
						c284,20,531.531,99.521,660,344c158.687,301.984,89.872,728-71.306,1027.422H713.416z"/>
				</g>
			</g>
		</g>
	</g>
	<g>
		<rect x="1898.063" y="618.058" style="fill:#A9DBEB;" width="215.183" height="1254.687"/>
		<rect x="1597.548" y="1000.767" style="fill:#A9DBEB;" width="215.183" height="871.978"/>
		<rect x="2166.446" y="889.897" style="fill:#A9DBEB;" width="215.183" height="982.847"/>
		<rect x="1297.033" y="851.245" style="fill:#A9DBEB;" width="215.183" height="1021.5"/>
		<rect x="996.519" y="1154.115" style="fill:#A9DBEB;" width="215.183" height="718.63"/>
		<g>
			<rect x="1898.063" y="907.228" style="opacity:0.3;fill:#B6CFDB;" width="215.183" height="965.517"/>
			<rect x="1597.548" y="1201.733" style="opacity:0.3;fill:#B6CFDB;" width="215.183" height="671.011"/>
			<rect x="2166.446" y="1116.416" style="opacity:0.3;fill:#B6CFDB;" width="215.183" height="756.329"/>
			<rect x="1297.033" y="1086.672" style="opacity:0.3;fill:#B6CFDB;" width="215.183" height="786.073"/>
			<rect x="996.519" y="1319.739" style="opacity:0.3;fill:#B6CFDB;" width="215.183" height="553.006"/>
		</g>
		<polygon style="fill:#E54A67;" points="2458.026,565.325 2286.56,663.013 2351.967,666.154 1942.659,1208.82 1716.027,952.866 
			1395.432,1516.189 1189.219,1295.55 866.521,1639.175 907.537,1661.493 1189.11,1363.113 1407.088,1596.34 1726.507,1035.085 
			1946.397,1283.426 2399.551,682.635 2441.621,716.718 		"/>
	</g>
	<g>
		<g>
			<g>
				<g>
					<g>
						<g>
							<g>
								
									<rect x="1668.912" y="1443.057" transform="matrix(-0.0026 -1 1 -0.0026 77.0202 3546.4338)" style="fill:#53A07C;" width="276.553" height="583.498"/>
							</g>
						</g>
					</g>
				</g>
				<g>
					<g>
						<g>
							<g>
								
									<ellipse transform="matrix(0.7071 -0.7071 0.7071 0.7071 -700.7181 1777.9857)" style="fill:#B9EDD6;" cx="1795.86" cy="1734.834" rx="101.305" ry="101.305"/>
							</g>
						</g>
					</g>
				</g>
				<g>
					<g>
						<g>
							<g>
								
									<rect x="1643.906" y="1415.442" transform="matrix(-0.0026 -1 1 -0.0026 79.5641 3493.7422)" style="fill:#7FC6A6;" width="276.553" height="583.498"/>
							</g>
						</g>
					</g>
				</g>
				<g>
					<g>
						<g>
							<g>
								
									<ellipse transform="matrix(0.7071 -0.7071 0.7071 0.7071 -681.1672 1769.8287)" style="fill:#B9EDD6;" cx="1795.789" cy="1707.156" rx="101.305" ry="101.305"/>
							</g>
						</g>
					</g>
				</g>
				<g>
					<g>
						<g>
							<g>
								<polygon style="fill:#53A07C;" points="1515.795,1873.829 1490.789,1846.214 1544.816,1846.076 								"/>
							</g>
						</g>
					</g>
				</g>
				<g>
					<g>
						<g>
							<g>
								<polygon style="fill:#53A07C;" points="2073.576,1568.167 2098.582,1595.782 2073.721,1624.703 								"/>
							</g>
						</g>
					</g>
				</g>
				<g>
					<g>
						<g>
							<g>
								<polygon style="fill:#4B8C6B;" points="2099.291,1872.334 2074.284,1844.719 2073.576,1568.167 2098.582,1595.782 								
									"/>
							</g>
						</g>
					</g>
				</g>
				<g>
					<g>
						<g>
							<g>
								
									<rect x="1650.694" y="1689.026" transform="matrix(-0.0026 -1 1 -0.0026 86.3861 3500.512)" style="fill:#223749;" width="276.553" height="36.295"/>
							</g>
						</g>
					</g>
				</g>
				<g>
					<g>
						<g>
							<g>
								<polygon style="fill:#223749;" points="1771.177,1845.496 1782.608,1873.145 1816.963,1873.057 1807.472,1845.403 								
									"/>
							</g>
						</g>
					</g>
				</g>
			</g>
			<g>
				<g>
					<g>
						<g>
							<g>
								<path d="M2099.859,1792.046c-0.236,0.106-0.497,0.167-0.774,0.166c-1.045,0.004-1.896-0.842-1.897-1.889l-0.498-193.805
									l-23.955-26.456l-580.76,1.49l0.707,274.659c0,1.047-0.839,1.903-1.889,1.897c-1.045,0.004-1.897-0.842-1.897-1.889
									l-0.715-278.445l1.893-0.004l584.339-1.498l26.063,28.777l0,0.73l0.498,194.536
									C2100.976,1791.084,2100.517,1791.75,2099.859,1792.046z"/>
							</g>
						</g>
					</g>
				</g>
			</g>
			<g>
				<g>
					<g>
						<g>
							<g>
								<path d="M2074.687,1699.51c-0.236,0.106-0.497,0.167-0.774,0.166c-1.045,0.004-1.896-0.842-1.897-1.889l-0.334-129.616
									c0-1.047,0.843-1.905,1.889-1.897c1.045-0.004,1.896,0.842,1.897,1.889l0.335,129.616
									C2075.804,1698.548,2075.344,1699.214,2074.687,1699.51z"/>
							</g>
						</g>
					</g>
				</g>
			</g>
			<g>
				<g>
					<g>
						<g>
							<g>
								<path style="fill:#B9EDD6;" d="M1666.316,1708.866c-0.124-48.248,26.557-90.299,66.01-112.082l-172.288,0.441
									c0,0.044,0.003,0.086,0.004,0.129c0.053,20.524-16.31,37.247-36.72,37.769l0.378,147.651
									c20.607,0.195,37.281,16.925,37.333,37.59c0.001,0.23-0.012,0.456-0.016,0.685l171.882-0.441
									C1693.335,1799.028,1666.439,1757.114,1666.316,1708.866z"/>
							</g>
						</g>
					</g>
				</g>
			</g>
			<g>
				<g>
					<g>
						<g>
							<g>
								<path style="fill:#B9EDD6;" d="M1855.471,1820.294l143.68-0.368c-0.012-20.784,16.804-37.665,37.598-37.718
									c0.172,0,0.342,0.01,0.514,0.011l-0.377-147.102c-20.723-0.06-37.531-16.846-37.584-37.595
									c-0.001-0.477,0.016-0.95,0.032-1.423l-144.436,0.37c39.564,21.581,66.46,63.495,66.584,111.742
									C1921.604,1756.46,1894.923,1798.511,1855.471,1820.294z"/>
							</g>
						</g>
					</g>
				</g>
			</g>
			<g>
				<g>
					<g>
						<g>
							<g>
								<g>
									<path d="M1529.052,1633.677c-0.911,0.41-1.993,0.045-2.458-0.854c-0.483-0.927-0.121-2.072,0.806-2.554l34.823-18.121
										c1.042-0.57,2.077-0.119,2.554,0.806c0.482,0.927,0.121,2.072-0.806,2.554l-34.823,18.121
										C1529.116,1633.648,1529.082,1633.663,1529.052,1633.677z"/>
								</g>
							</g>
						</g>
					</g>
				</g>
				<g>
					<g>
						<g>
							<g>
								<g>
									<path d="M1539.22,1641.464c-0.911,0.41-1.994,0.041-2.458-0.854c-0.482-0.927-0.121-2.072,0.806-2.554l34.825-18.117
										c1.03-0.606,2.077-0.119,2.554,0.806c0.482,0.927,0.121,2.072-0.806,2.554l-34.825,18.118
										C1539.284,1641.435,1539.25,1641.45,1539.22,1641.464z"/>
								</g>
							</g>
						</g>
					</g>
				</g>
			</g>
		</g>
		<g style="opacity:0.5;">
			<g>
				<g>
					<path style="fill:#7FC6A6;" d="M2073.571,1566.273L2073.571,1566.273l-0.001,0l-583.495,1.496l-1.893,0.004l0.715,278.445
						c0,1.047,0.852,1.893,1.897,1.889c0.49,0.003,0.929-0.187,1.264-0.492l23.738,26.214l266.813-0.684v0l34.356-0.088l0,0
						l282.328-0.724l-0.205-80.123c0.276,0.001,0.537-0.059,0.773-0.166c0.658-0.296,1.117-0.961,1.115-1.731l-0.498-194.536l0-0.73
						l-26.063-28.777L2073.571,1566.273z"/>
				</g>
			</g>
		</g>
		<g>
			<g>
				<g>
					<g>
						<g>
							<g>
								
									<rect x="1730.132" y="1306.479" transform="matrix(0.3392 -0.9407 0.9407 0.3392 -268.7686 2813.8572)" style="fill:#53A07C;" width="276.553" height="583.498"/>
							</g>
						</g>
					</g>
				</g>
				<g>
					<g>
						<g>
							<g>
								
									<ellipse transform="matrix(0.7071 -0.7071 0.7071 0.7071 -583.278 1780.6128)" style="fill:#B9EDD6;" cx="1857.751" cy="1594.385" rx="101.305" ry="101.305"/>
							</g>
						</g>
					</g>
				</g>
				<g>
					<g>
						<g>
							<g>
								
									<rect x="1716.062" y="1271.984" transform="matrix(0.3392 -0.9407 0.9407 0.3392 -245.6158 2777.8257)" style="fill:#7FC6A6;" width="276.553" height="583.498"/>
							</g>
						</g>
					</g>
				</g>
				<g>
					<g>
						<g>
							<g>
								
									<ellipse transform="matrix(0.7071 -0.7071 0.7071 0.7071 -562.1168 1779.6241)" style="fill:#B9EDD6;" cx="1867.138" cy="1568.347" rx="101.305" ry="101.305"/>
							</g>
						</g>
					</g>
				</g>
				<g>
					<g>
						<g>
							<g>
								<polygon style="fill:#53A07C;" points="1547.055,1629.362 1532.984,1594.866 1583.809,1613.19 								"/>
							</g>
						</g>
					</g>
				</g>
				<g>
					<g>
						<g>
							<g>
								<polygon style="fill:#53A07C;" points="2175.692,1532.598 2189.763,1567.094 2156.518,1585.783 								"/>
							</g>
						</g>
					</g>
				</g>
				<g>
					<g>
						<g>
							<g>
								<polygon style="fill:#4B8C6B;" points="2095.969,1827.255 2081.899,1792.76 2175.692,1532.598 2189.763,1567.094 								
									"/>
							</g>
						</g>
					</g>
				</g>
				<g>
					<g>
						<g>
							<g>
								
									<rect x="1722.447" y="1547.887" transform="matrix(0.3392 -0.9407 0.9407 0.3392 -243.5623 2785.353)" style="fill:#223749;" width="276.553" height="36.295"/>
							</g>
						</g>
					</g>
				</g>
				<g>
					<g>
						<g>
							<g>
								<polygon style="fill:#223749;" points="1796.755,1689.961 1798.054,1719.851 1830.374,1731.504 1830.899,1702.27 								
									"/>
							</g>
						</g>
					</g>
				</g>
			</g>
			<g>
				<g>
					<g>
						<g>
							<g>
								<path d="M2123.926,1751.99c-0.258,0.019-0.524-0.013-0.783-0.109c-0.984-0.353-1.495-1.439-1.138-2.423l65.728-182.32
									l-13.478-33.047l-546.341-196.965l-93.148,258.382c-0.357,0.984-1.439,1.502-2.423,1.138
									c-0.984-0.353-1.495-1.44-1.138-2.423l94.434-261.944l1.781,0.643l549.708,198.179l14.667,35.949l-0.249,0.686
									l-65.978,183.006C2125.305,1751.468,2124.646,1751.936,2123.926,1751.99z"/>
							</g>
						</g>
					</g>
				</g>
			</g>
			<g>
				<g>
					<g>
						<g>
							<g>
								<path d="M2131.875,1656.421c-0.258,0.019-0.524-0.013-0.784-0.109c-0.984-0.353-1.495-1.439-1.138-2.423l43.957-121.935
									c0.357-0.984,1.443-1.503,2.423-1.138c0.984,0.354,1.495,1.439,1.138,2.423l-43.957,121.935
									C2133.253,1655.899,2132.594,1656.368,2131.875,1656.421z"/>
							</g>
						</g>
					</g>
				</g>
			</g>
			<g>
				<g>
					<g>
						<g>
							<g>
								<path style="fill:#B9EDD6;" d="M1744.868,1525.731c16.363-45.388,55.803-75.797,100.323-82.795l-162.077-58.432
									c-0.015,0.041-0.026,0.082-0.041,0.123c-6.961,19.308-28.051,29.437-47.412,22.955l-50.076,138.901
									c19.301,7.222,29.258,28.64,22.249,48.081c-0.078,0.216-0.167,0.425-0.249,0.638l161.695,58.294
									C1739.467,1619.7,1728.504,1571.12,1744.868,1525.731z"/>
							</g>
						</g>
					</g>
				</g>
			</g>
			<g>
				<g>
					<g>
						<g>
							<g>
								<path style="fill:#B9EDD6;" d="M1884.587,1695.066l135.164,48.729c7.088-19.539,28.659-29.66,48.22-22.607
									c0.162,0.059,0.318,0.126,0.479,0.187l49.89-138.384c-19.456-7.135-29.52-28.652-22.483-48.172
									c0.162-0.449,0.339-0.887,0.516-1.326l-135.876-48.986c29.814,33.796,40.776,82.376,24.412,127.765
									C1968.547,1657.66,1929.108,1688.069,1884.587,1695.066z"/>
							</g>
						</g>
					</g>
				</g>
			</g>
			<g>
				<g>
					<g>
						<g>
							<g>
								<g>
									<path d="M1641.541,1408.18c-0.996,0.074-1.888-0.639-2.018-1.642c-0.137-1.036,0.594-1.988,1.63-2.125l38.918-5.137
										c1.174-0.18,1.993,0.597,2.125,1.63c0.137,1.036-0.594,1.989-1.63,2.125l-38.918,5.137
										C1641.61,1408.175,1641.574,1408.177,1641.541,1408.18z"/>
								</g>
							</g>
						</g>
					</g>
				</g>
				<g>
					<g>
						<g>
							<g>
								<g>
									<path d="M1648.437,1418.972c-0.996,0.074-1.888-0.642-2.019-1.642c-0.136-1.036,0.594-1.988,1.63-2.125l38.919-5.133
										c1.175-0.218,1.993,0.597,2.125,1.63c0.137,1.036-0.594,1.988-1.63,2.125l-38.919,5.133
										C1648.507,1418.967,1648.47,1418.969,1648.437,1418.972z"/>
								</g>
							</g>
						</g>
					</g>
				</g>
			</g>
		</g>
	</g>
	<g>
		<g>
			<g>
				<g>
					<polygon style="fill:#FFD469;" points="2351.239,1872.744 2351.147,1564.789 2303.059,1564.803 2303.048,1527.693 
						2302.938,1527.693 2302.938,1526.334 2282.155,1526.34 2282.144,1489.196 2302.926,1489.19 2303.036,1489.19 
						2303.025,1450.687 2302.914,1450.687 2302.914,1450.687 2159.331,1450.73 2159.328,1450.73 1989.808,1450.78 
						1989.819,1487.924 1968.927,1487.93 1968.928,1490.647 1968.928,1490.647 1968.939,1527.792 1989.831,1527.785 
						1989.832,1529.144 1989.842,1564.93 1950.614,1564.942 1950.615,1567.659 1950.615,1567.659 1950.626,1604.802 
						1989.854,1604.791 1989.854,1606.15 1989.865,1641.936 1963.655,1641.943 1963.655,1643.302 1963.655,1643.302 
						1963.667,1681.804 1999.974,1681.793 1999.975,1683.118 1999.985,1718.904 1999.986,1720.229 1963.678,1720.24 
						1963.689,1758.743 1963.689,1758.743 1963.69,1760.101 1989.9,1760.093 1989.91,1795.879 1958.382,1795.889 1958.383,1798.605 
						1958.383,1798.605 1958.394,1835.75 2032.568,1835.727 2032.579,1872.838 					"/>
				</g>
			</g>
		</g>
		<g style="opacity:0.3;">
			<g>
				<g>
					<g>
						<rect x="1968.933" y="1487.881" style="fill:#FFC23B;" width="333.556" height="39.827"/>
					</g>
				</g>
			</g>
		</g>
		<g>
			<g>
				<g>
					<g>
						<rect x="1950.62" y="1564.858" style="fill:#FFC23B;" width="333.557" height="39.827"/>
					</g>
				</g>
			</g>
		</g>
		<g>
			<g>
				<g>
					<g>
						<rect x="1958.145" y="1641.862" style="fill:#FFC23B;" width="333.557" height="38.503"/>
					</g>
				</g>
			</g>
		</g>
		<g>
			<g>
				<g>
					<g>
						<rect x="1961.544" y="1718.867" style="fill:#FFC23B;" width="333.556" height="38.435"/>
					</g>
				</g>
			</g>
		</g>
		<g>
			<g>
				<g>
					<g>
						<rect x="1958.191" y="1795.805" style="fill:#FFC23B;" width="333.556" height="38.469"/>
					</g>
				</g>
			</g>
		</g>
		<g>
			<g>
				<g>
					<g>
						<g>
							<g>
								<g>
									<g>
										<rect x="2208.916" y="1834.237" style="fill:#FFC931;" width="313.216" height="38.503"/>
									</g>
								</g>
							</g>
						</g>
					</g>
				</g>
			</g>
			<g>
				<g>
					<g>
						<g>
							<g>
								<g>
									<g>
										<rect x="2240.433" y="1795.725" style="fill:#FFC931;" width="313.217" height="38.503"/>
									</g>
								</g>
							</g>
						</g>
					</g>
				</g>
			</g>
			<g>
				<g>
					<g>
						<g>
							<g>
								<g>
									<g>
										<rect x="2214.211" y="1757.23" style="fill:#FFC931;" width="313.217" height="38.503"/>
									</g>
								</g>
							</g>
						</g>
					</g>
				</g>
			</g>
			<g>
				<g>
					<g>
						<g>
							<g>
								<g>
									<g>
										<rect x="2250.508" y="1718.75" style="fill:#FFC931;" width="313.217" height="38.503"/>
									</g>
								</g>
							</g>
						</g>
					</g>
				</g>
			</g>
			<g>
				<g>
					<g>
						<g>
							<g>
								<g>
									<g>
										<rect x="2214.188" y="1680.292" style="fill:#FFC931;" width="313.217" height="38.503"/>
									</g>
								</g>
							</g>
						</g>
					</g>
				</g>
			</g>
			<g>
				<g>
					<g>
						<g>
							<g>
								<g>
									<g>
										<rect x="2240.387" y="1641.781" style="fill:#FFC931;" width="313.217" height="38.503"/>
									</g>
								</g>
							</g>
						</g>
					</g>
				</g>
			</g>
			<g>
				<g>
					<g>
						<g>
							<g>
								<g>
									<g>
										<rect x="2201.148" y="1603.29" style="fill:#FFC931;" width="313.217" height="38.503"/>
									</g>
								</g>
							</g>
						</g>
					</g>
				</g>
			</g>
			<g>
				<g>
					<g>
						<g>
							<g>
								<g>
									<g>
										<rect x="2240.365" y="1564.775" style="fill:#FFC931;" width="313.217" height="38.503"/>
									</g>
								</g>
							</g>
						</g>
					</g>
				</g>
			</g>
			<g>
				<g>
					<g>
						<g>
							<g>
								<g>
									<g>
										<rect x="2219.461" y="1526.279" style="fill:#FFC931;" width="313.216" height="38.503"/>
									</g>
								</g>
							</g>
						</g>
					</g>
				</g>
			</g>
			<g>
				<g>
					<g>
						<g>
							<g>
								<g>
									<g>
										<rect x="2240.342" y="1487.77" style="fill:#FFC931;" width="313.217" height="38.503"/>
									</g>
								</g>
							</g>
						</g>
					</g>
				</g>
			</g>
			<g style="opacity:0.5;">
				<g>
					<g>
						<g>
							<g>
								<g>
									<g>
										<path style="fill:#F99247;" d="M2563.62,1757.206l-0.011-38.503l-36.308,0.011l-0.011-38.469l26.21-0.008l-0.012-38.503
											l-39.228,0.012l-0.011-38.502l39.228-0.012l-0.011-38.503l-20.892,0.006l-0.011-38.502l20.892-0.006l-0.011-38.503
											l-143.583,0.042c-5.769,0.002-10.444,4.958-10.443,11.071l0.005,16.367c0.002,6.113-4.674,11.069-10.443,11.071l0,0
											c-5.769,0.001-10.445,4.958-10.443,11.071l0.005,16.367c0.002,6.113,4.68,11.067,10.449,11.065l0,0
											c5.769-0.002,10.448,4.952,10.449,11.065l0.005,16.367c0.002,6.113-4.674,11.069-10.443,11.071l-18.336,0.006
											c-5.77,0.001-10.445,4.958-10.443,11.071l0.005,16.367c0.002,6.113,4.68,11.067,10.449,11.065l18.336-0.005
											c5.769-0.002,10.448,4.952,10.449,11.065l0.005,16.367c0.002,6.113-4.673,11.069-10.443,11.071l-5.318,0.002
											c-5.769,0.001-10.445,4.958-10.443,11.071l0.005,16.334c0.002,6.113,4.68,11.067,10.449,11.065l15.416-0.005
											c5.77-0.002,10.448,4.952,10.449,11.065l0.005,16.367c0.002,6.113-4.674,11.069-10.443,11.071l-15.416,0.005
											c-5.769,0.002-10.444,4.958-10.443,11.071l0.005,16.334c0.002,6.112,4.68,11.066,10.449,11.065l5.318-0.001
											c5.769-0.002,10.448,4.952,10.449,11.065l0.005,16.367c0.002,6.113-4.674,11.069-10.443,11.071l-10.636,0.003
											c-5.77,0.002-10.445,4.958-10.443,11.071l0.001,3.823l0.004,12.544c0.002,6.112,4.68,11.066,10.449,11.065l143.583-0.043
											l-0.007-23.611l-0.005-14.891l31.528-0.009l-0.011-38.503l-26.21,0.008l-0.011-38.469L2563.62,1757.206z"/>
									</g>
								</g>
							</g>
						</g>
					</g>
				</g>
			</g>
			<g>
				<g>
					<g>
						<g>
							<g>
								<g>
									<g>
										<rect x="2219.455" y="1524.92" width="313.107" height="2.717"/>
									</g>
								</g>
							</g>
						</g>
					</g>
				</g>
			</g>
			<g>
				<g>
					<g>
						<g>
							<g>
								<g>
									<g>
										<rect x="2240.359" y="1563.417" width="313.107" height="2.717"/>
									</g>
								</g>
							</g>
						</g>
					</g>
				</g>
			</g>
			<g>
				<g>
					<g>
						<g>
							<g>
								<g>
									<g>
										<rect x="2201.142" y="1601.932" width="313.107" height="2.717"/>
									</g>
								</g>
							</g>
						</g>
					</g>
				</g>
			</g>
			<g>
				<g>
					<g>
						<g>
							<g>
								<g>
									<g>
										<rect x="2240.382" y="1640.423" width="313.107" height="2.717"/>
									</g>
								</g>
							</g>
						</g>
					</g>
				</g>
			</g>
			<g>
				<g>
					<g>
						<g>
							<g>
								<g>
									<g>
										<rect x="2214.183" y="1678.933" width="313.106" height="2.717"/>
									</g>
								</g>
							</g>
						</g>
					</g>
				</g>
			</g>
			<g>
				<g>
					<g>
						<g>
							<g>
								<g>
									<g>
										<rect x="2250.502" y="1717.391" width="313.107" height="2.717"/>
									</g>
								</g>
							</g>
						</g>
					</g>
				</g>
			</g>
			<g>
				<g>
					<g>
						<g>
							<g>
								<g>
									<g>
										<rect x="2250.513" y="1755.894" width="313.107" height="2.717"/>
									</g>
								</g>
							</g>
						</g>
					</g>
				</g>
			</g>
			<g>
				<g>
					<g>
						<g>
							<g>
								<g>
									<g>
										<rect x="2214.217" y="1794.375" width="313.106" height="2.717"/>
									</g>
								</g>
							</g>
						</g>
					</g>
				</g>
			</g>
			<g>
				<g>
					<g>
						<g>
							<g>
								<g>
									<g>
										<rect x="2208.91" y="1832.879" width="313.107" height="2.717"/>
									</g>
								</g>
							</g>
						</g>
					</g>
				</g>
			</g>
		</g>
		<g>
			<g>
				<g>
					<g>
						<g>
							<g>
								<g>
									<g>
										<rect x="1828.62" y="1834.349" style="fill:#FFC931;" width="316.803" height="38.503"/>
									</g>
								</g>
							</g>
						</g>
					</g>
				</g>
			</g>
			<g>
				<g>
					<g>
						<g>
							<g>
								<g>
									<g>
										<rect x="1860.497" y="1795.837" style="fill:#FFC931;" width="316.803" height="38.503"/>
									</g>
								</g>
							</g>
						</g>
					</g>
				</g>
			</g>
			<g>
				<g>
					<g>
						<g>
							<g>
								<g>
									<g>
										<rect x="1833.975" y="1757.342" style="fill:#FFC931;" width="316.803" height="38.503"/>
									</g>
								</g>
							</g>
						</g>
					</g>
				</g>
			</g>
			<g>
				<g>
					<g>
						<g>
							<g>
								<g>
									<g>
										<rect x="1870.688" y="1718.862" style="fill:#FFC931;" width="316.803" height="38.503"/>
									</g>
								</g>
							</g>
						</g>
					</g>
				</g>
			</g>
			<g>
				<g>
					<g>
						<g>
							<g>
								<g>
									<g>
										<rect x="1833.953" y="1680.404" style="fill:#FFC931;" width="316.803" height="38.503"/>
									</g>
								</g>
							</g>
						</g>
					</g>
				</g>
			</g>
			<g>
				<g>
					<g>
						<g>
							<g>
								<g>
									<g>
										<rect x="1860.452" y="1641.893" style="fill:#FFC931;" width="316.803" height="38.503"/>
									</g>
								</g>
							</g>
						</g>
					</g>
				</g>
			</g>
			<g>
				<g>
					<g>
						<g>
							<g>
								<g>
									<g>
										<rect x="1820.763" y="1603.402" style="fill:#FFC931;" width="316.803" height="38.503"/>
									</g>
								</g>
							</g>
						</g>
					</g>
				</g>
			</g>
			<g style="opacity:0.5;">
				<g>
					<g>
						<g>
							<path style="fill:#F99247;" d="M1992.216,1603.398l145.233-0.043l0.012,38.502l39.677-0.012l0.011,38.503l-26.51,0.008
								l0.011,38.469l36.724-0.011l0.011,38.503l-36.724,0.011l0.011,38.469l26.51-0.008l0.011,38.503l-31.889,0.01l0.004,14.891
								l0.007,23.612l-145.227,0.043c-5.835,0.002-10.567-4.952-10.569-11.064l-0.004-12.544l-0.001-3.823
								c-0.002-6.113,4.727-11.069,10.563-11.071l10.758-0.003c5.835-0.002,10.564-4.958,10.562-11.071l-0.005-16.367
								c-0.002-6.113-4.734-11.067-10.569-11.065l-5.379,0.002c-5.835,0.002-10.567-4.952-10.569-11.065l-0.005-16.334
								c-0.002-6.112,4.727-11.069,10.562-11.071l15.593-0.004c5.835-0.002,10.564-4.958,10.563-11.071l-0.005-16.367
								c-0.002-6.113-4.734-11.066-10.569-11.064l-15.592,0.004c-5.835,0.002-10.567-4.952-10.569-11.065l-0.005-16.334
								c-0.002-6.113,4.727-11.069,10.562-11.071l5.379-0.002c5.835-0.002,10.564-4.958,10.562-11.071l-0.005-16.367
								c-0.002-6.113-4.734-11.066-10.569-11.064l-18.546,0.005c-5.835,0.002-10.567-4.952-10.569-11.065l-0.005-16.367
								C1981.657,1608.358,1986.384,1603.403,1992.216,1603.398z"/>
						</g>
					</g>
				</g>
			</g>
			<g>
				<g>
					<g>
						<g>
							<g>
								<g>
									<g>
										<rect x="1820.757" y="1602.044" width="316.692" height="2.717"/>
									</g>
								</g>
							</g>
						</g>
					</g>
				</g>
			</g>
			<g>
				<g>
					<g>
						<g>
							<g>
								<g>
									<g>
										<rect x="1860.446" y="1640.535" width="316.692" height="2.717"/>
									</g>
								</g>
							</g>
						</g>
					</g>
				</g>
			</g>
			<g>
				<g>
					<g>
						<g>
							<g>
								<g>
									<g>
										<rect x="1833.947" y="1679.045" width="316.691" height="2.717"/>
									</g>
								</g>
							</g>
						</g>
					</g>
				</g>
			</g>
			<g>
				<g>
					<g>
						<g>
							<g>
								<g>
									<g>
										<rect x="1870.682" y="1717.503" width="316.692" height="2.717"/>
									</g>
								</g>
							</g>
						</g>
					</g>
				</g>
			</g>
			<g>
				<g>
					<g>
						<g>
							<g>
								<g>
									<g>
										<rect x="1870.694" y="1756.006" width="316.692" height="2.717"/>
									</g>
								</g>
							</g>
						</g>
					</g>
				</g>
			</g>
			<g>
				<g>
					<g>
						<g>
							<g>
								<g>
									<g>
										<rect x="1833.981" y="1794.487" width="316.691" height="2.717"/>
									</g>
								</g>
							</g>
						</g>
					</g>
				</g>
			</g>
			<g>
				<g>
					<g>
						<g>
							<g>
								<g>
									<g>
										<rect x="1828.614" y="1832.991" width="316.692" height="2.717"/>
									</g>
								</g>
							</g>
						</g>
					</g>
				</g>
			</g>
		</g>
		<g>
			<g>
				<g>
					<g>
						<path style="fill:#FFFFFF;" d="M1860.45,1656.744c-1.818,16.935-16.563,21.48-16.563,21.48s14.748,4.536,16.576,21.47
							c1.818-16.935,16.563-21.48,16.563-21.48S1862.278,1673.677,1860.45,1656.744z"/>
					</g>
				</g>
			</g>
		</g>
		<g>
			<g>
				<g>
					<g>
						<path style="fill:#FFFFFF;" d="M2084.492,1582.558c-1.817,16.935-16.563,21.48-16.563,21.48s14.748,4.537,16.575,21.47
							c1.818-16.935,16.563-21.48,16.563-21.48S2086.319,1599.492,2084.492,1582.558z"/>
					</g>
				</g>
			</g>
		</g>
		<g>
			<g>
				<g>
					<g>
						<path style="fill:#FFFFFF;" d="M2019.286,1469.23c-1.818,16.935-16.563,21.48-16.563,21.48s14.748,4.536,16.576,21.47
							c1.818-16.935,16.563-21.48,16.563-21.48S2021.114,1486.164,2019.286,1469.23z"/>
					</g>
				</g>
			</g>
		</g>
		<g>
			<g>
				<g>
					<g>
						<path style="fill:#FFFFFF;" d="M2165.786,1540.497c-0.683,6.364-6.224,8.072-6.224,8.072s5.542,1.705,6.229,8.068
							c0.683-6.364,6.224-8.072,6.224-8.072S2166.472,1546.86,2165.786,1540.497z"/>
					</g>
				</g>
			</g>
		</g>
		<g>
			<g>
				<g>
					<g>
						<path style="fill:#FFFFFF;" d="M2520.535,1433.538c-1.271,11.845-11.585,15.025-11.585,15.025s10.316,3.173,11.594,15.018
							c1.271-11.845,11.585-15.025,11.585-15.025S2521.813,1445.383,2520.535,1433.538z"/>
					</g>
				</g>
			</g>
		</g>
		<g>
			<g>
				<g>
					<g>
						<path style="fill:#FFFFFF;" d="M2410.251,1700.185c-1.571,14.639-14.317,18.568-14.317,18.568s12.749,3.922,14.328,18.56
							c1.571-14.639,14.317-18.568,14.317-18.568S2411.831,1714.823,2410.251,1700.185z"/>
					</g>
				</g>
			</g>
		</g>
		<g>
			<g>
				<g>
					<g>
						<path style="fill:#FFFFFF;" d="M1968.998,1725.919c-1.113,10.366-10.138,13.148-10.138,13.148s9.027,2.777,10.146,13.142
							c1.112-10.366,10.138-13.148,10.138-13.148S1970.116,1736.285,1968.998,1725.919z"/>
					</g>
				</g>
			</g>
		</g>
		<g>
			<g>
				<g>
					<g>
						<path style="fill:#FFFFFF;" d="M2325.069,1537.907c-0.817,7.606-7.439,9.647-7.439,9.647s6.624,2.037,7.445,9.643
							c0.816-7.606,7.439-9.648,7.439-9.648S2325.889,1545.512,2325.069,1537.907z"/>
					</g>
				</g>
			</g>
		</g>
		<g>
			<g>
				<g>
					<g>
						<path style="fill:#FFFFFF;" d="M2315.382,1765.475c-1.146,10.68-10.446,13.547-10.446,13.547s9.301,2.861,10.454,13.541
							c1.146-10.68,10.446-13.547,10.446-13.547S2316.535,1776.154,2315.382,1765.475z"/>
					</g>
				</g>
			</g>
		</g>
	</g>
	<g>
		<g>
			<g>
				<g>
					<g>
						<g>
							<g>
								<g>
									<path style="fill:#FE9F73;" d="M706.332,1377.64l22.84,205.182l-7.558,48.942c-4.483,29.031-6.242,58.419-5.252,87.778
										l3.887,115.321l67.904,3.21l52.815-478.212L706.332,1377.64z"/>
								</g>
							</g>
						</g>
					</g>
				</g>
			</g>
		</g>
		<g>
			<g>
				<g>
					<g>
						<g>
							<g>
								<g>
									<polygon style="fill:#FE9F73;" points="691.262,1377.64 637.339,1582.712 571.036,1834.861 499.803,1841.742 
										560.76,1359.86 									"/>
								</g>
							</g>
						</g>
					</g>
				</g>
			</g>
		</g>
		<g>
			<g>
				<g>
					<g>
						<path style="fill:#4CB7D8;" d="M571.775,1859.034h-60.492l-24.526-26.715l-44.858,26.715h-9.662
							c-3.329,0-6.382,2.252-7.009,5.521c-0.844,4.4,2.505,8.247,6.753,8.247h140.656c1.034,0,1.872-0.838,1.872-1.871v-9.163
							C574.509,1860.258,573.285,1859.034,571.775,1859.034z"/>
					</g>
				</g>
			</g>
			<g>
				<g>
					<g>
						<path style="fill:#FD7583;" d="M571.241,1859.111v-24.831c0,0-10.188-13.713-25.699-6.714c0,0-23.461,16.644-44.144-3.497
							l-51.36,22.782c0,0-14.082,4.707-17.895,12.26H571.241z"/>
					</g>
				</g>
			</g>
			<g>
				<g>
					<g>
						<g>
							<g>
								<rect x="570.726" y="1834.28" width="1.029" height="24.708"/>
							</g>
						</g>
					</g>
				</g>
			</g>
			<g>
				<g>
					<g>
						<g>
							<g>
								<path d="M524.515,1834.55c-1.966,0-3.151-0.168-3.189-0.174l0.153-1.017c0.12,0.016,12.243,1.716,23.771-6.217l0.584,0.849
									C537.573,1833.675,529.006,1834.55,524.515,1834.55z"/>
							</g>
						</g>
					</g>
				</g>
			</g>
			<g>
				<g>
					<g>
						<g>
							<g>
								
									<rect x="557.777" y="1851.319" transform="matrix(0.8296 -0.5584 0.5584 0.8296 -938.3151 629.2593)" width="7.913" height="1.03"/>
							</g>
						</g>
					</g>
				</g>
			</g>
			<g>
				<g>
					<g>
						<g>
							<g>
								
									<rect x="553.073" y="1850.069" transform="matrix(0.8291 -0.5591 0.5591 0.8291 -939.4853 627.7235)" width="7.912" height="1.028"/>
							</g>
						</g>
					</g>
				</g>
			</g>
			<g>
				<g>
					<g>
						<g>
							<g>
								<g>
									<g>
										<g>
											<g>
												<g>
													<g>
														<path d="M427.196,1871.607c-1.661-1.409-2.614-3.465-2.614-5.642c0-4.08,3.319-7.399,7.399-7.399h139.076
															c2.187,0,3.966,1.78,3.966,3.967v6.864h-1.03v-6.864c0-1.62-1.317-2.938-2.936-2.938H431.982
															c-3.513,0-6.37,2.857-6.37,6.37c0,1.874,0.82,3.644,2.25,4.858L427.196,1871.607z"/>
													</g>
												</g>
											</g>
										</g>
									</g>
								</g>
							</g>
						</g>
					</g>
				</g>
			</g>
			<g>
				<g>
					<g>
						<g>
							<g>
								<path d="M432.448,1859.3l-0.931-0.439c0.115-0.244,2.932-6.017,13.445-10.501c10.331-4.406,55.769-24.559,56.227-24.762
									l0.419,0.941c-0.459,0.203-45.905,20.359-56.241,24.768C435.25,1853.622,432.474,1859.244,432.448,1859.3z"/>
							</g>
						</g>
					</g>
				</g>
			</g>
		</g>
		<g>
			<g>
				<g>
					<g>
						<path style="fill:#4CB7D8;" d="M719.13,1859.034h60.492l24.526-26.715l44.859,26.715h9.661c3.329,0,6.381,2.252,7.008,5.521
							c0.844,4.4-2.505,8.247-6.754,8.247H718.268c-1.034,0-1.871-0.838-1.871-1.871v-9.163
							C716.396,1860.258,717.62,1859.034,719.13,1859.034z"/>
					</g>
				</g>
			</g>
			<g>
				<g>
					<g>
						<path style="fill:#FD7583;" d="M719.665,1859.111v-24.831c0,0,10.188-13.713,25.7-6.714c0,0,23.461,16.644,44.144-3.497
							l51.359,22.782c0,0,14.082,4.707,17.895,12.26H719.665z"/>
					</g>
				</g>
			</g>
			<g>
				<g>
					<g>
						<g>
							<g>
								<rect x="719.15" y="1834.28" width="1.03" height="24.708"/>
							</g>
						</g>
					</g>
				</g>
			</g>
			<g>
				<g>
					<g>
						<g>
							<g>
								<path d="M766.391,1834.55c1.966,0,3.15-0.168,3.189-0.174l-0.153-1.017c-0.12,0.016-12.243,1.716-23.772-6.217l-0.583,0.849
									C753.333,1833.675,761.899,1834.55,766.391,1834.55z"/>
							</g>
						</g>
					</g>
				</g>
			</g>
			<g>
				<g>
					<g>
						<g>
							<g>
								
									<rect x="728.658" y="1847.878" transform="matrix(0.5583 -0.8297 0.8297 0.5583 -1214.3008 1423.0063)" width="1.03" height="7.913"/>
							</g>
						</g>
					</g>
				</g>
			</g>
			<g>
				<g>
					<g>
						<g>
							<g>
								
									<rect x="733.363" y="1846.627" transform="matrix(0.559 -0.8291 0.8291 0.559 -1210.7798 1424.5049)" width="1.028" height="7.912"/>
							</g>
						</g>
					</g>
				</g>
			</g>
			<g>
				<g>
					<g>
						<g>
							<g>
								<g>
									<g>
										<g>
											<g>
												<g>
													<g>
														<path d="M863.709,1871.607c1.661-1.409,2.614-3.465,2.614-5.642c0-4.08-3.319-7.399-7.399-7.399H719.848
															c-2.188,0-3.966,1.78-3.966,3.967v6.864h1.03v-6.864c0-1.62,1.317-2.938,2.937-2.938h139.076
															c3.512,0,6.369,2.857,6.369,6.37c0,1.874-0.82,3.644-2.249,4.858L863.709,1871.607z"/>
													</g>
												</g>
											</g>
										</g>
									</g>
								</g>
							</g>
						</g>
					</g>
				</g>
			</g>
			<g>
				<g>
					<g>
						<g>
							<g>
								<path d="M858.458,1859.3l0.931-0.439c-0.115-0.244-2.932-6.017-13.445-10.501c-10.331-4.406-55.769-24.559-56.227-24.762
									l-0.418,0.941c0.459,0.203,45.904,20.359,56.241,24.768C855.655,1853.622,858.432,1859.244,858.458,1859.3z"/>
							</g>
						</g>
					</g>
				</g>
			</g>
		</g>
		<g>
			<g>
				<g>
					<g>
						<g>
							<path style="fill:#FE9F73;" d="M466.283,1140.018c-0.185-12.711,32.197-68.504,45.203-92.893
								c20.229,17.629,49.442,31.927,62.694,36.829c-12.886,20.56-27.648,47.4-33.764,56.968
								c-6.344,9.925,18.622,88.567,27.456,103.644l-31.762,36.833C514.1,1261.183,466.923,1183.967,466.283,1140.018z"/>
						</g>
					</g>
				</g>
			</g>
		</g>
		<g>
			<g>
				<polygon style="fill:#FE9F73;" points="907.165,727.935 858.468,839.796 795.425,905.803 831.497,972.763 908.813,869.234 
					951.225,744.179 				"/>
			</g>
		</g>
		<g>
			<g>
				<g>
					<g>
						<g>
							<g>
								<path style="fill:#FE9F73;" d="M908.752,731.631c-2.86-1.082-1.088,4.104-1.441,2.291l-1.22-50.021
									c-0.541-2.782,1.276-5.475,4.057-6.017c2.782-0.541,5.475,1.276,6.016,4.057l5.497,13.779
									c3.58-5.256,23.612-40.516,23.612-40.516c1.316-2.636,4.596-3.645,7.183-2.137c2.361,1.376,3.141,4.432,1.92,6.877
									l-11.861,23.76c-0.177,0.354-0.152,0.749,0.008,1.086l0,0l0.001,0c0.093,0.195,0.22,0.375,0.41,0.503l1.107,0.747
									c0.284,0.191,0.617,0.249,0.928,0.19c5.16,3.412,11.617,7.902,17.262,11.308c4.011,2.419,8.21,3.158,8.566,7.66
									c0.206,2.604-5.199,12.847-7.391,16.345l-14.127,26.246C942.412,743.314,932.494,750.426,908.752,731.631z"/>
							</g>
						</g>
					</g>
				</g>
			</g>
			<g>
				<g>
					<g>
						<g>
							<g>
								<path style="fill:#FE9F73;" d="M951.898,682.587c2.645,2.246,3.171,5.764,2.662,6.367l-17.012,20.144
									c-1.911,2.264-5.289,2.797-7.671,1.036c-2.611-1.93-3.013-5.628-0.952-8.068l17.445-20.657
									C946.371,681.409,949.253,680.341,951.898,682.587z"/>
							</g>
						</g>
					</g>
				</g>
			</g>
			<g>
				<g>
					<g>
						<g>
							<g>
								<path style="fill:#FE9F73;" d="M960.227,689.731c2.688,2.195,3.281,5.702,2.784,6.315l-16.622,20.467
									c-1.868,2.3-5.234,2.898-7.65,1.183c-2.647-1.88-3.12-5.569-1.106-8.049l17.046-20.988
									C954.678,688.659,957.539,687.536,960.227,689.731z"/>
							</g>
						</g>
					</g>
				</g>
			</g>
			<g>
				<g>
					<g>
						<g>
							<g>
								<path style="fill:#FE9F73;" d="M967.344,697.1c2.528,2.015,3.118,5.276,2.662,5.852l-15.259,19.245
									c-1.715,2.163-4.844,2.757-7.113,1.186c-2.487-1.722-2.967-5.153-1.118-7.485l15.648-19.735
									C962.164,696.162,964.816,695.085,967.344,697.1z"/>
							</g>
						</g>
					</g>
				</g>
			</g>
			<g>
				<g>
					<g>
						<g>
							<g>
								<g>
									<path style="fill:#F07162;" d="M955.402,689.395c0.224-0.427,0.13-0.966-0.254-1.288c-0.443-0.371-1.102-0.313-1.474,0.129
										l-16.927,20.189c-1.599,1.893-4.344,2.276-6.248,0.868c-1.019-0.755-1.663-1.86-1.809-3.113
										c-0.147-1.253,0.219-2.474,1.035-3.44l15.553-18.417c0.366-0.444,0.316-1.103-0.125-1.474
										c-0.441-0.373-1.101-0.317-1.474,0.125l-15.553,18.417c-1.173,1.389-1.725,3.224-1.514,5.032
										c0.214,1.833,1.153,3.45,2.644,4.553c2.787,2.061,6.782,1.533,9.092-1.203l16.929-20.191
										C955.326,689.523,955.367,689.46,955.402,689.395z"/>
								</g>
							</g>
						</g>
					</g>
				</g>
			</g>
			<g>
				<g>
					<g>
						<g>
							<g>
								<g>
									<path style="fill:#F07162;" d="M962.951,696.824c0.23-0.438,0.124-0.99-0.278-1.308c-0.454-0.358-1.111-0.28-1.47,0.173
										l-15.923,20.169c-1.572,1.937-4.017,2.346-5.936,0.983c-1.035-0.734-1.698-1.826-1.868-3.076
										c-0.171-1.25,0.17-2.476,0.968-3.46l17.046-20.988c0.366-0.446,0.297-1.108-0.153-1.472
										c-0.448-0.364-1.107-0.296-1.471,0.153l-17.046,20.988c-1.149,1.411-1.664,3.256-1.418,5.062
										c0.25,1.828,1.219,3.426,2.73,4.498c2.815,2,6.508,1.418,8.781-1.382l15.933-20.18
										C962.886,696.934,962.921,696.88,962.951,696.824z"/>
								</g>
							</g>
						</g>
					</g>
				</g>
			</g>
			<g>
				<g>
					<g>
						<g>
							<g>
								<g>
									<path style="fill:#F07162;" d="M970.932,703.438c0.23-0.437,0.124-0.989-0.277-1.306c-0.452-0.359-1.11-0.283-1.469,0.17
										l-15.26,19.245c-1.412,1.782-3.914,2.21-5.697,0.976c-0.955-0.662-1.575-1.655-1.744-2.798
										c-0.17-1.142,0.131-2.271,0.85-3.178l15.648-19.735c0.356-0.446,0.282-1.11-0.17-1.469
										c-0.452-0.359-1.111-0.283-1.469,0.171l-15.648,19.735c-1.066,1.343-1.532,3.087-1.281,4.785
										c0.256,1.721,1.187,3.216,2.623,4.21c2.686,1.861,6.432,1.248,8.528-1.396l15.259-19.245
										C970.866,703.549,970.902,703.495,970.932,703.438z"/>
								</g>
							</g>
						</g>
					</g>
				</g>
			</g>
		</g>
		<g>
			<g>
				<path style="fill:#EF6277;" d="M856.455,839.857c-22.007,16.47-111.565,101.849-119.421,104.706
					c-0.64,0.233-1.718,0.434-3.157,0.608l49.836,101.954c2.665,0,46.871-59.424,125.092-171.278
					C889.331,844.373,877.76,837.323,856.455,839.857z"/>
			</g>
		</g>
		<g>
			<g>
				<g>
					<g>
						<g>
							<g>
								<path style="fill:#5B3150;" d="M720.209,831.857c0,0,6.766-21.574-18.648-36.128c-25.414-14.554-25.944,15.095-34.736,18.84
									c-8.792,3.745-25.603,2.33-29.752,20.026c-4.149,17.695,0.719,29.775-8.552,33.537
									c-9.271,3.762-37.879,31.733-26.032,62.672c11.846,30.939,42.687,25.554,42.687,25.554s122.482-9.184,126.976-41.851
									c4.494-32.667-8.904-44.993-25.632-53.872C736.24,855.178,716.497,851.972,720.209,831.857z"/>
							</g>
						</g>
					</g>
				</g>
			</g>
		</g>
		<g>
			<g>
				<g>
					<g>
						<g>
							<g>
								<g>
									<path style="fill:#FE9F73;" d="M708.754,843.267c0,0,15.384,42.146,10.053,53.281c0,0-2.524,5.862-11.042,7.77
										l5.574,27.203l-38.388,7.865l-18.286-89.248L708.754,843.267z"/>
								</g>
							</g>
						</g>
					</g>
				</g>
			</g>
		</g>
		<g>
			<g>
				<g>
					<g>
						<g>
							<g>
								<g>
									<path style="fill:#F07162;" d="M703.208,879.97c-0.161,0.033-0.329-0.049-0.398-0.207c-0.079-0.18,0.003-0.391,0.184-0.47
										c2.153-0.944,3.005-4.008,3.228-4.997c-3.549-1.053-5.956-2.874-7.156-5.417c-1.956-4.144,0.001-8.656,0.085-8.846
										c0.08-0.18,0.291-0.261,0.471-0.182c0.18,0.08,0.262,0.291,0.182,0.471c-0.019,0.044-1.908,4.411-0.09,8.256
										c1.144,2.421,3.506,4.143,7.019,5.121l0.309,0.086l-0.052,0.317c-0.031,0.185-0.792,4.566-3.71,5.845
										C703.256,879.957,703.232,879.965,703.208,879.97z"/>
								</g>
							</g>
						</g>
					</g>
				</g>
			</g>
		</g>
		<g>
			<g>
				<g>
					<g>
						<g>
							<g>
								<g>
									<path style="fill:#F07162;" d="M710.026,915.351l-2.313-11.041c0,0-18.832,1.768-31.389-3.689
										C676.324,900.622,694.775,913.177,710.026,915.351z"/>
								</g>
							</g>
						</g>
					</g>
				</g>
			</g>
		</g>
		<g>
			<g>
				<g>
					<g>
						<g>
							<g>
								<g>
									<path style="fill:#33192C;" d="M677.998,865.922c-0.174,0.036-0.362,0.007-0.524-0.096
										c-0.333-0.211-0.433-0.651-0.223-0.984c0.071-0.11,7.157-11.117,16.708-6.193c0.35,0.18,0.488,0.611,0.307,0.961
										c-0.181,0.35-0.611,0.488-0.962,0.308c-8.384-4.32-14.586,5.275-14.845,5.686
										C678.35,865.775,678.181,865.885,677.998,865.922z"/>
								</g>
							</g>
						</g>
					</g>
				</g>
			</g>
		</g>
		<g>
			<g>
				<g>
					<g>
						<g>
							<g>
								<g>
									<path style="fill:#33192C;" d="M701.439,855.581c-0.196,0.04-0.407-0.002-0.578-0.133c-0.313-0.24-0.372-0.688-0.132-1.001
										c0.216-0.281,5.352-6.885,9.995-4.306c0.345,0.192,0.469,0.626,0.278,0.97c-0.191,0.346-0.625,0.471-0.971,0.278
										c-3.567-1.978-8.123,3.868-8.168,3.927C701.753,855.459,701.601,855.548,701.439,855.581z"/>
								</g>
							</g>
						</g>
					</g>
				</g>
			</g>
		</g>
		<g>
			<g>
				<g>
					<g>
						<g>
							<g>
								<g>
									<path d="M711.112,863.198c0.22,1.076-0.473,2.127-1.549,2.347c-1.076,0.22-2.127-0.473-2.347-1.549
										c-0.22-1.076,0.473-2.127,1.549-2.348C709.84,861.428,710.891,862.121,711.112,863.198z"/>
								</g>
							</g>
						</g>
					</g>
				</g>
			</g>
		</g>
		<g>
			<g>
				<g>
					<g>
						<g>
							<g>
								<g>
									<path d="M691.158,867.286c0.22,1.076-0.473,2.127-1.549,2.347c-1.076,0.221-2.127-0.473-2.348-1.549
										c-0.221-1.076,0.473-2.127,1.549-2.348C689.886,865.516,690.937,866.21,691.158,867.286z"/>
								</g>
							</g>
						</g>
					</g>
				</g>
			</g>
		</g>
		<g>
			<g>
				<g>
					<g>
						<g>
							<g>
								<g>
									<path style="fill:#FE9F73;" d="M670.785,880.148c1.236,6.033-2.653,11.925-8.685,13.161
										c-6.033,1.236-11.925-2.652-13.161-8.685c-1.236-6.033,2.652-11.925,8.685-13.161
										C663.656,870.226,669.549,874.115,670.785,880.148z"/>
								</g>
							</g>
						</g>
					</g>
				</g>
			</g>
		</g>
		<g>
			<g>
				<g>
					<g>
						<g>
							<g>
								<g>
									<path style="fill:#F07162;" d="M660.435,889.292c-2.293,0.47-4.177-0.939-5.034-2.557c-1.013-1.914-0.735-4.034,0.71-5.401
										c2.057-1.945,4.375-1.529,5.69-1.036c-0.708-1.067-1.598-1.77-2.656-2.097c-2.38-0.736-4.845,0.663-4.87,0.678
										c-0.172,0.098-0.389,0.039-0.488-0.131c-0.098-0.17-0.04-0.389,0.131-0.488c0.111-0.064,2.762-1.569,5.439-0.741
										c1.546,0.478,2.768,1.633,3.631,3.434l0.553,1.154l-1.071-0.701c-0.13-0.086-3.218-2.059-5.868,0.449
										c-1.465,1.385-1.222,3.315-0.57,4.548c0.684,1.292,2.221,2.634,4.314,2.18c0.189-0.044,0.383,0.079,0.426,0.272
										c0.042,0.193-0.079,0.383-0.272,0.425C660.478,889.282,660.456,889.287,660.435,889.292z"/>
								</g>
							</g>
						</g>
					</g>
				</g>
			</g>
		</g>
		<g>
			<g>
				<g>
					<g>
						<g>
							<g>
								<path style="fill:#FE9F73;" d="M708.754,843.267c0,0-6.767-16.132-29.642-13.374c-22.875,2.758-22.448,20.244-22.448,20.244
									l26.738-0.053l23.671-6.596L708.754,843.267z"/>
							</g>
						</g>
					</g>
				</g>
			</g>
		</g>
		<g>
			<g>
				<g>
					<g>
						<g>
							<g>
								<path style="fill:#5B3150;" d="M705.836,829.025c0,0-11.183,16.564-29.977,17.18c0,0-1.513,23.418-14.861,25.086
									c-13.347,1.669-12.492-30.519-12.492-30.519s22.511-15.036,24.066-15.355c1.554-0.319,27.291-7.211,27.291-7.211
									L705.836,829.025z"/>
							</g>
						</g>
					</g>
				</g>
			</g>
		</g>
		<g>
			<g>
				<g>
					<g>
						<g>
							<g>
								<g>
									<path style="fill:#EA5942;" d="M695.818,872.806c-0.558,0.114-0.736-0.752-0.177-0.867
										C696.198,871.825,696.376,872.692,695.818,872.806L695.818,872.806z"/>
								</g>
							</g>
						</g>
					</g>
				</g>
			</g>
		</g>
		<g>
			<g>
				<g>
					<g>
						<g>
							<g>
								<g>
									<path style="fill:#EA5942;" d="M693.504,874.906c-0.558,0.114-0.737-0.752-0.178-0.866
										C693.884,873.925,694.063,874.791,693.504,874.906L693.504,874.906z"/>
								</g>
							</g>
						</g>
					</g>
				</g>
			</g>
		</g>
		<g>
			<g>
				<g>
					<g>
						<g>
							<g>
								<g>
									<path style="fill:#EA5942;" d="M688.086,872.764c-0.557,0.114-0.736-0.752-0.177-0.866
										C688.467,871.783,688.645,872.65,688.086,872.764L688.086,872.764z"/>
								</g>
							</g>
						</g>
					</g>
				</g>
			</g>
		</g>
		<g>
			<g>
				<g>
					<g>
						<g>
							<g>
								<g>
									<path style="fill:#EA5942;" d="M684.63,876.724c-0.558,0.114-0.736-0.752-0.177-0.867
										C685.01,875.743,685.188,876.609,684.63,876.724L684.63,876.724z"/>
								</g>
							</g>
						</g>
					</g>
				</g>
			</g>
		</g>
		<g>
			<g>
				<g>
					<g>
						<g>
							<g>
								<g>
									<path style="fill:#EA5942;" d="M679.48,873.41c-0.558,0.114-0.736-0.752-0.178-0.867
										C679.86,872.429,680.039,873.296,679.48,873.41L679.48,873.41z"/>
								</g>
							</g>
						</g>
					</g>
				</g>
			</g>
		</g>
		<g>
			<g>
				<g>
					<g>
						<g>
							<g>
								<g>
									<path style="fill:#EA5942;" d="M679.198,879.971c-0.558,0.114-0.736-0.752-0.178-0.867
										C679.578,878.99,679.757,879.856,679.198,879.971L679.198,879.971z"/>
								</g>
							</g>
						</g>
					</g>
				</g>
			</g>
		</g>
		<g>
			<g>
				<g>
					<g>
						<g>
							<g>
								<g>
									<path style="fill:#EA5942;" d="M703.977,868.492c-0.557,0.114-0.736-0.752-0.178-0.867
										C704.357,867.511,704.536,868.378,703.977,868.492L703.977,868.492z"/>
								</g>
							</g>
						</g>
					</g>
				</g>
			</g>
		</g>
		<g>
			<g>
				<g>
					<g>
						<g>
							<g>
								<g>
									<path style="fill:#EA5942;" d="M707.915,871.344c-0.558,0.114-0.736-0.752-0.178-0.867
										C708.295,870.363,708.473,871.229,707.915,871.344L707.915,871.344z"/>
								</g>
							</g>
						</g>
					</g>
				</g>
			</g>
		</g>
		<g>
			<g>
				<g>
					<g>
						<g>
							<g>
								<g>
									<path style="fill:#EA5942;" d="M711.496,868.984c-0.558,0.115-0.736-0.752-0.177-0.867
										C711.876,868.003,712.054,868.869,711.496,868.984L711.496,868.984z"/>
								</g>
							</g>
						</g>
					</g>
				</g>
			</g>
		</g>
		<g>
			<g>
				<g>
					<g>
						<g>
							<g>
								<g>
									<path style="fill:#EA5942;" d="M713.047,875.068c-0.557,0.114-0.736-0.753-0.178-0.867
										C713.427,874.087,713.606,874.953,713.047,875.068L713.047,875.068z"/>
								</g>
							</g>
						</g>
					</g>
				</g>
			</g>
		</g>
		<g>
			<g>
				<g>
					<g>
						<g>
							<g>
								<g>
									<path style="fill:#EA5942;" d="M715.233,870.86c-0.558,0.115-0.736-0.752-0.177-0.867
										C715.613,869.879,715.792,870.746,715.233,870.86L715.233,870.86z"/>
								</g>
							</g>
						</g>
					</g>
				</g>
			</g>
		</g>
		<g>
			<g>
				<g>
					<g>
						<g>
							<g>
								<g>
									<path style="fill:#EA5942;" d="M713.452,865.636c-0.558,0.114-0.737-0.752-0.178-0.867
										C713.832,864.655,714.01,865.522,713.452,865.636L713.452,865.636z"/>
								</g>
							</g>
						</g>
					</g>
				</g>
			</g>
		</g>
		<g>
			<g>
				<g>
					<g>
						<g>
							<g>
								<g>
									<path style="fill:#EA5942;" d="M690.943,878.276c-0.558,0.114-0.736-0.752-0.178-0.867
										C691.323,877.295,691.502,878.161,690.943,878.276L690.943,878.276z"/>
								</g>
							</g>
						</g>
					</g>
				</g>
			</g>
		</g>
		<g>
			<g>
				<g>
					<g>
						<g>
							<path style="fill:#FD7583;" d="M856.959,1454.482c2.42,11.814-1.679,37.421-3.853,49.153
								c-167.127,86.224-356.565-14.495-356.565-14.495c11.235-80.361,34.5-172.098,65.481-243.824
								c3.004-6.954,13.833-35.06,25.555-59.807c10.282-21.705,21.694-40.564,23.108-43.828c1.781-4.11,6.296-7.497,5.821-10.614
								c-0.626-4.109-15.457-39.016-26.822-71.563l-50.24,85.514c-48.823-15.255-71.2-25.708-71.2-25.708
								c38.017-69.394,88.591-146.689,115.251-172.704c23.471-16.151,71.326-20.497,95.09-18.241
								c29.791-0.555,53.937-1.399,78.57,3.068l-0.01,0.01c4.727,5.688,39.621,59.548,44.378,70.231
								c7.081,15.385,4.536,35.72-4.039,50.005c-5.925,3.656-6.678,76.451-7.747,81.704
								C840.012,1226.97,858.104,1349.085,856.959,1454.482z"/>
						</g>
					</g>
				</g>
			</g>
		</g>
		<g>
			<g>
				<g>
					<g>
						<g>
							<g>
								<g>
									<g>
										<g>
											<path style="fill:#21111D;" d="M598.41,958.768c0.229,0,0.456-0.104,0.603-0.301
												c7.276-9.701,19.165-13.644,19.285-13.683c0.395-0.128,0.612-0.553,0.484-0.949c-0.128-0.395-0.554-0.613-0.948-0.484
												c-0.505,0.163-12.456,4.119-20.025,14.212c-0.25,0.333-0.182,0.805,0.15,1.055
												C598.094,958.719,598.253,958.768,598.41,958.768z"/>
										</g>
									</g>
								</g>
							</g>
						</g>
					</g>
				</g>
			</g>
			<g>
				<g>
					<g>
						<g>
							<g>
								<g>
									<g>
										<g>
											<path style="fill:#21111D;" d="M599.83,965.742c0.23,0,0.456-0.104,0.604-0.301c7.276-9.701,19.165-13.644,19.284-13.683
												c0.395-0.128,0.612-0.553,0.484-0.948c-0.129-0.395-0.553-0.613-0.948-0.485c-0.505,0.163-12.456,4.119-20.025,14.212
												c-0.25,0.333-0.182,0.806,0.15,1.055C599.514,965.693,599.673,965.742,599.83,965.742z"/>
										</g>
									</g>
								</g>
							</g>
						</g>
					</g>
				</g>
			</g>
		</g>
		<g>
			<g>
				<g>
					<g>
						<g>
							<path d="M636.253,1134.292c-0.032,0-0.064-0.001-0.096-0.005l-19.472-2.065c-0.495-0.053-0.853-0.496-0.8-0.991
								c0.052-0.495,0.489-0.859,0.991-0.801l19.472,2.065c0.495,0.053,0.853,0.496,0.801,0.991
								C637.099,1133.948,636.708,1134.292,636.253,1134.292z"/>
						</g>
					</g>
				</g>
			</g>
		</g>
		<g>
			<g>
				<g>
					<g>
						<g>
							<path d="M855.152,1503.465c-0.019,0-0.037,0-0.058-0.001c-0.496-0.032-0.873-0.458-0.843-0.955
								c7.771-125.052-10.39-218.623-26.992-275.098c-17.99-61.189-38.075-93.22-38.275-93.536l-0.161-0.252l0.022-0.298
								l5.823-78.833l0.128-0.196c25.266-38.409-4.931-69.616-5.238-69.927c-0.351-0.353-0.348-0.923,0.005-1.273
								c0.354-0.351,0.924-0.348,1.274,0.005c0.318,0.32,31.445,32.429,5.593,71.99l-5.767,78.077
								c1.941,3.158,21.087,35.139,38.298,93.647c16.658,56.629,34.88,150.446,27.088,275.808
								C856.019,1503.098,855.623,1503.465,855.152,1503.465z"/>
						</g>
					</g>
				</g>
			</g>
		</g>
		<g>
			<g>
				<g>
					<g>
						<g>
							<g>
								<g>
									<g>
										<path style="fill:#FBFDFC;" d="M699.168,886.651c0.167-0.067,11.107-2.438,11.107-2.438s-0.506,4.81-4.57,5.702
											C701.642,890.808,699.168,886.651,699.168,886.651z"/>
									</g>
								</g>
							</g>
						</g>
					</g>
				</g>
			</g>
		</g>
		<g>
			<g>
				<path d="M596.968,1080.933l18.813,50.291c-4.639,7.415-73.248,119.369-109.502,302.595c-0.096,0.487,0.221,0.961,0.709,1.058
					c0.059,0.011,0.118,0.018,0.176,0.018c0.421,0,0.797-0.297,0.882-0.726c37.275-188.383,108.775-301.238,109.493-302.355
					l0.244-0.38l-19.433-51.946L596.968,1080.933z"/>
			</g>
		</g>
		<g>
			<g>
				<g>
					<g>
						<g>
							<g>
								<path style="fill:#F07162;" d="M573.067,1243.491c0,0,8.644-2.628,16.366-6.9c7.722-4.272,8.046,2.516,6.683,5.17
									c-1.362,2.653-9.869,11.523-9.869,11.523L573.067,1243.491z"/>
							</g>
						</g>
					</g>
				</g>
			</g>
			<g>
				<g>
					<g>
						<g>
							<g>
								<path style="fill:#FE9F73;" d="M563.49,1235.214c0.127,0.233,4.158,7.32,4.281,7.53c12.532,1.769,27.108,3.821,30.693,4.303
									c6.58,0.885,27.679,11.202,33.602,17.849c10.748,12.06,3.076,11.63,3.076,11.63c9.991,13.574-2.363,11.362-2.363,11.362
									c10.017,11.377-2.017,11.545-2.017,11.545c4.749,6.659,3.114,9.275,0.928,10.299c-1.601,0.749-3.474,0.616-5.028-0.227
									c-2.87-1.557-9.159-4.992-15.708-8.714l0.005,0.003c0,0-21.222-6.95-59.847-14.786l-15.002-4.609L563.49,1235.214z"/>
							</g>
						</g>
					</g>
				</g>
			</g>
			<g>
				<g>
					<g>
						<g>
							<g>
								<g>
									<g>
										<g>
											<g>
												<g>
													<g>
														<g>
															<g>
																<path style="fill:#F07162;" d="M618.053,1288.962c-0.33-0.068-0.68,0.078-0.856,0.386
																	c-0.218,0.383-0.085,0.87,0.298,1.088c5.37,3.06,12.663,9.527,12.735,9.592c0.33,0.292,0.834,0.263,1.128-0.066
																	c0.293-0.33,0.263-0.835-0.066-1.127c-0.304-0.269-7.491-6.642-13.007-9.786
																	C618.21,1289.008,618.132,1288.979,618.053,1288.962z"/>
															</g>
														</g>
													</g>
												</g>
											</g>
										</g>
									</g>
								</g>
							</g>
						</g>
					</g>
				</g>
				<g>
					<g>
						<g>
							<g>
								<g>
									<g>
										<g>
											<g>
												<g>
													<g>
														<g>
															<g>
																<path style="fill:#F07162;" d="M620.11,1279.064c-0.369-0.077-0.752,0.118-0.901,0.479
																	c-0.167,0.408,0.029,0.874,0.436,1.041c6.958,2.852,12.543,7.847,12.599,7.897c0.33,0.296,0.833,0.268,1.127-0.058
																	c0.295-0.328,0.27-0.832-0.058-1.127c-0.235-0.212-5.839-5.227-13.063-8.189
																	C620.205,1279.089,620.157,1279.074,620.11,1279.064z"/>
															</g>
														</g>
													</g>
												</g>
											</g>
										</g>
									</g>
								</g>
							</g>
						</g>
					</g>
				</g>
				<g>
					<g>
						<g>
							<g>
								<g>
									<g>
										<g>
											<g>
												<g>
													<g>
														<g>
															<g>
																<path style="fill:#F07162;" d="M624.193,1268.138c-0.36-0.075-0.736,0.108-0.891,0.458
																	c-0.178,0.402,0.003,0.874,0.406,1.053c5.935,2.636,10.826,7.398,10.875,7.447c0.314,0.31,0.82,0.304,1.129-0.011
																	c0.308-0.314,0.304-0.819-0.011-1.128c-0.207-0.203-5.148-5.014-11.346-7.766
																	C624.302,1268.166,624.248,1268.15,624.193,1268.138z"/>
															</g>
														</g>
													</g>
												</g>
											</g>
										</g>
									</g>
								</g>
							</g>
						</g>
					</g>
				</g>
			</g>
		</g>
		<g>
			<g>
				<path style="fill:#FD7583;" d="M468.244,1119.312c0,0-7.576,16.892-1.962,41.089c5.614,24.197,28.898,88.212,62.682,116.924
					c0,0,27.392-30.182,35.382-47.302c0,0-26.251-84.631-25.567-95.73c0.685-11.1-32.518-23.655-32.518-23.655L468.244,1119.312z"/>
			</g>
		</g>
		<g>
			<g>
				<path style="fill:#EF6277;" d="M856.455,839.857l46.567-109.669c0,0,28.838,2.435,48.203,22.218
					c0,0-32.19,108.833-42.42,123.441c-10.23,14.607-46.567,2.439-46.567,2.439L856.455,839.857z"/>
			</g>
		</g>
		<g>
			<g>
				<path style="fill:#FFFFFF;" d="M648.709,928.499c0,0,82.709,96.309,88.312,108.179c0,0,5.151-82.336,4.92-107.366
					C741.942,929.312,705.148,922.281,648.709,928.499z"/>
			</g>
		</g>
		<g>
			<g>
				<g>
					<g>
						<polygon style="fill:#A5EFED;" points="663.795,932.289 670.49,917.613 700.851,924.851 710.191,916.156 718.38,926.659 
							707.322,938.754 701.788,933.326 698.721,942.021 						"/>
					</g>
				</g>
			</g>
		</g>
		<g>
			<g>
				<path style="fill:#EF6277;" d="M648.709,928.499c0,0,9.912,36.046,16.303,47.611l23.414,11.566l-0.429,18.261l49.024,30.74
					C737.021,1036.678,677.756,954.847,648.709,928.499z"/>
			</g>
		</g>
		<g>
			<g>
				<path style="fill:#EF6277;" d="M741.942,929.312c0,0,13.618,31.865,14.227,36.43l-7.95,16.846l6.276,9.957l-17.473,44.132
					C737.021,1036.678,737.911,954.038,741.942,929.312z"/>
			</g>
		</g>
		<g>
			<g>
				<polygon style="fill:#EF6277;" points="580.568,1203.574 728.472,1255.36 756.168,1217.924 782.343,1253.284 823.364,1214.7 
					783.256,1268.122 756.168,1238.012 728.928,1272.719 				"/>
			</g>
		</g>
		<g>
			<g>
				<path d="M737.75,1036.684l-1.458-0.013c0.006-0.699,0.636-70.325,4.925-107.443l1.448,0.168
					C738.385,966.437,737.756,1035.986,737.75,1036.684z"/>
			</g>
		</g>
		<g>
			<g>
				<polygon points="782.245,1254.377 755.583,1218.358 756.754,1217.491 782.441,1252.192 822.865,1214.169 823.863,1215.231 				
					"/>
			</g>
		</g>
		<g>
			<g>
				<polygon style="fill:#EF6277;" points="794.796,1054.296 676.324,1061.94 794.01,1063.404 				"/>
			</g>
		</g>
		<g>
			<g>
				<path d="M728.738,1256.226l-0.507-0.178l-147.904-51.787l0.482-1.375l147.397,51.609l27.208-36.776l-19.097-180.771
					c-2.944-4.085-60.62-83.92-88.087-107.899l0.959-1.098c28.175,24.597,87.825,107.468,88.424,108.303l0.113,0.156l0.02,0.192
					l19.177,181.529L728.738,1256.226z"/>
			</g>
		</g>
	</g>
	<g>
		<rect x="262.323" y="1871.75" style="fill:#21111D;" width="2400.41" height="9.825"/>
	</g>
</g>
</svg>
